<svg xmlns="http://www.w3.org/2000/svg" enable-background="new 0 0 64 64" viewBox="0 0 64 64"><circle cx="32" cy="32" r="32" fill="#ffc42e"/><path d="M47.97 30.65c0 .52.42.94.94.94.52 0 .94-.42.94-.94 0-5.64-2.48-10.95-6.79-14.58-.4-.33-.99-.28-1.32.11-.33.4-.28.99.11 1.32C45.74 20.78 47.97 25.57 47.97 30.65zM21.13 44.85c-4.7-3.21-7.51-8.52-7.51-14.2 0-6.6 3.68-12.46 9.48-15.35l-.8 7.46c-.06.52.32.98.83 1.03.03 0 .07.01.1.01.47 0 .88-.36.93-.84l.97-9.09c.01-.06.01-.13 0-.19 0 0 0 0 0 0 0 0 0 0 0 0-.01-.09-.04-.18-.07-.27-.01-.02-.01-.03-.02-.05-.04-.08-.09-.15-.14-.22-.01-.01-.02-.02-.03-.04-.06-.06-.13-.12-.21-.16 0 0 0 0 0 0-.08-.04-.16-.07-.25-.09-.01 0-.02-.01-.03-.01l-9.92-1.83c-.51-.09-1 .24-1.1.75-.09.51.24 1 .75 1.1l7.09 1.31c-5.83 3.37-9.47 9.57-9.47 16.48 0 6.31 3.11 12.19 8.33 15.75.16.11.35.16.53.16.3 0 .6-.14.78-.41C21.67 45.73 21.56 45.14 21.13 44.85zM51.98 32.79c-.37-.37-.96-.37-1.33 0L32.71 50.73l-8.8-8.8c-.37-.37-.96-.37-1.33 0-.37.37-.37.96 0 1.33l9.47 9.47c.18.18.42.28.66.28.24 0 .48-.09.66-.28l18.61-18.61C52.35 33.75 52.35 33.15 51.98 32.79z"/></svg>