<svg xmlns="http://www.w3.org/2000/svg" width="32" height="32"><path fill="#f8b84e" fill-rule="evenodd" d="m20.951 8.638 3.9-3.9h-15.6l-3.9 3.9z"/><path fill="#fcd062" fill-rule="evenodd" d="M5.351 8.638h15.6v15.6h-15.6z"/><path fill="#f8aa3a" fill-rule="evenodd" d="M20.951 24.238v-15.6l3.9-3.9v15.6z"/><path fill="none" stroke="#34485c" stroke-linecap="round" stroke-linejoin="round" d="M7.86 18.486h5.85m-5.85 2h3.9"/><path fill="#34485c" d="M509.002 1436.303a4.494 4.494 0 0 1 0 6.367 4.494 4.494 0 0 1-6.368 0 4.497 4.497 0 0 1 0-6.37 4.497 4.497 0 0 1 6.368 0z" color="#000" font-family="sans-serif" font-weight="400" overflow="visible" style="line-height:normal;text-indent:0;text-align:start;text-decoration-line:none;text-decoration-style:solid;text-decoration-color:#000;text-transform:none;block-progression:tb;isolation:auto;mix-blend-mode:normal;marker:none" transform="translate(-484.324 -1415.993)"/><g fill="#f8aa3a" fill-rule="evenodd" color="#000" font-family="sans-serif" font-weight="400"><path style="line-height:normal;text-indent:0;text-align:start;text-decoration-line:none;text-decoration-style:solid;text-decoration-color:#000;text-transform:none;block-progression:tb;isolation:auto;mix-blend-mode:normal" d="M664 1203.76v1h.772c.423 0 .677.135.851.318.174.183.268.434.268.694 0 .259-.094.512-.268.695-.174.183-.428.318-.851.318H664v1h.772c.656 0 1.21-.245 1.576-.629.365-.384.543-.887.543-1.384a2 2 0 0 0-.543-1.383c-.366-.384-.92-.63-1.576-.63H664z" overflow="visible" transform="translate(-644.509 -1183.565)"/><path d="M664.006 1205.284v1h4v-1h-4zm0-1.524v1.024h4v-1.024h-4zm.695 3.027-.697.715 2.93 2.854.699-.715-2.932-2.854z" overflow="visible" style="line-height:normal;text-indent:0;text-align:start;text-decoration-line:none;text-decoration-style:solid;text-decoration-color:#000;text-transform:none;block-progression:tb;isolation:auto;mix-blend-mode:normal" transform="translate(-644.509 -1183.565)"/></g></svg>