<svg xmlns="http://www.w3.org/2000/svg" viewBox="0 0 32 32"><defs><linearGradient id="a" x1=".142" x2="37.062" y1="15.5" y2="15.5" gradientUnits="userSpaceOnUse"><stop offset="0" stop-color="#e93e3a"/><stop offset=".354" stop-color="#ed683c"/><stop offset=".705" stop-color="#f3903f"/><stop offset="1" stop-color="#fdc70c"/></linearGradient></defs><path fill="url(#a)" d="M31.778,7.371A1,1,0,0,0,31,7H25V4a1,1,0,0,0-1-1H18V2a1,1,0,0,0-1-1H9A1,1,0,0,0,8,2V7H6.352L6,2.914A1,1,0,0,0,5,2H1A1,1,0,0,0,1,4H4.083L6,26.086A1,1,0,0,0,7,27a3,3,0,0,0,6,0h6a3,3,0,0,0,6,0h1a1,1,0,0,0,0-2H24.212a2.946,2.946,0,0,0-4.424,0H12.212A2.969,2.969,0,0,0,7.9,24.856L7.743,23H28a1,1,0,0,0,.978-.791l3-14A1,1,0,0,0,31.778,7.371ZM22,26a1.006,1.006,0,1,1-.866.5A1,1,0,0,1,22,26ZM23,5V7H18V5ZM10,3h6V7H10Zm0,23a1.006,1.006,0,1,1-.866.5A1,1,0,0,1,10,26Zm17.191-5H7.569L6.525,9H29.763Z"/></svg>