<svg xmlns="http://www.w3.org/2000/svg" enable-background="new 0 0 24 24" viewBox="0 0 24 24"><path fill="#4285F4" d="M8.079,11.7c0-0.281-0.023-0.562-0.071-0.838H4.121v1.587h2.226c-0.092,0.512-0.389,0.965-0.823,1.252v1.031h1.329C7.631,14.016,8.079,12.955,8.079,11.7z"/><path fill="#34A853" d="M4.121,15.728c1.113,0,2.05-0.365,2.732-0.995l-1.329-1.031c-0.37,0.251-0.846,0.394-1.404,0.394c-1.075,0-1.987-0.724-2.313-1.701H0.439v1.062C1.139,14.85,2.564,15.728,4.121,15.728L4.121,15.728z"/><path fill="#FBBC04" d="M1.808,12.395c-0.172-0.511-0.172-1.066,0-1.578V9.756H0.439c-0.586,1.165-0.586,2.537,0,3.702L1.808,12.395L1.808,12.395z"/><path fill="#EA4335" d="M4.121,9.117c0.588-0.009,1.155,0.212,1.581,0.618l1.177-1.176C6.133,7.858,5.145,7.474,4.121,7.485c-1.557,0-2.982,0.88-3.682,2.271l1.369,1.062C2.134,9.841,3.046,9.117,4.121,9.117L4.121,9.117z"/><path fill="#2D9248" d="M1.808,12.395L1.808,12.395l-1.369,1.062l0,0c0.7,1.392,2.125,2.271,3.682,2.271l0,0v-1.632l0,0C3.046,14.096,2.134,13.372,1.808,12.395L1.808,12.395z"/><path fill="#DBA403" d="M0.439,9.756L0.439,9.756c-0.586,1.165-0.586,2.537,0,3.702l0,0l1.369-1.062c-0.172-0.511-0.172-1.066,0-1.578l0,0L0.439,9.756L0.439,9.756z"/><path fill="#CC3A2E" d="M4.121,7.485L4.121,7.485c-1.557,0-2.982,0.88-3.682,2.271l0,0l1.369,1.062c0.326-0.977,1.239-1.701,2.313-1.701l0,0V7.485L4.121,7.485z"/><path fill="#5F6368" d="M10.917,11.497v2.904H9.995V7.227h2.444c0.59-0.012,1.16,0.211,1.583,0.621c0.429,0.386,0.67,0.938,0.661,1.514c0.013,0.58-0.229,1.137-0.661,1.523c-0.428,0.408-0.955,0.612-1.583,0.61L10.917,11.497L10.917,11.497z M10.917,8.11v2.505h1.545c0.343,0.01,0.673-0.125,0.912-0.372c0.484-0.47,0.495-1.245,0.024-1.729l-0.024-0.024c-0.235-0.252-0.568-0.39-0.912-0.381H10.917L10.917,8.11z M16.807,9.332c0.682,0,1.219,0.182,1.613,0.546c0.394,0.364,0.59,0.864,0.59,1.497v3.026H18.13v-0.682h-0.04c-0.381,0.561-0.89,0.841-1.523,0.841c-0.54,0-0.993-0.16-1.357-0.481c-0.353-0.298-0.554-0.739-0.545-1.202c0-0.508,0.192-0.912,0.576-1.212c0.384-0.3,0.896-0.45,1.538-0.45c0.547,0,0.999,0.1,1.352,0.3v-0.211c0.002-0.316-0.138-0.615-0.381-0.816c-0.244-0.219-0.562-0.34-0.89-0.336c-0.515,0-0.922,0.218-1.222,0.651l-0.811-0.511C15.271,9.652,15.932,9.332,16.807,9.332L16.807,9.332z M15.614,12.898c-0.001,0.238,0.113,0.462,0.305,0.601c0.204,0.16,0.457,0.245,0.716,0.24c0.389-0.001,0.762-0.156,1.037-0.431c0.305-0.288,0.458-0.624,0.458-1.011c-0.287-0.229-0.688-0.344-1.203-0.344c-0.374,0-0.687,0.09-0.937,0.271C15.74,12.408,15.614,12.631,15.614,12.898L15.614,12.898z M24.071,9.492l-3.077,7.073h-0.951l1.142-2.475l-2.024-4.598h1.001l1.462,3.526h0.02l1.423-3.526H24.071L24.071,9.492z"/><path fill="#53565B" d="M10.917,12.395H9.995v2.005h0.922V12.395L10.917,12.395z M19.011,12.395h-0.883c-0.024,0.346-0.176,0.65-0.455,0.913c-0.275,0.275-0.648,0.43-1.037,0.431c-0.008,0-0.015,0-0.022,0c-0.251,0-0.495-0.085-0.694-0.24c-0.193-0.139-0.306-0.363-0.305-0.601c0-0.189,0.063-0.356,0.189-0.503h-1.073c-0.044,0.149-0.067,0.309-0.067,0.482c-0.009,0.463,0.192,0.904,0.545,1.202c0.364,0.321,0.817,0.481,1.357,0.481c0.633,0,1.142-0.28,1.523-0.841h0.04v0.682h0.881V12.395L19.011,12.395z M22.808,12.395h-0.912l-0.251,0.623h-0.02l-0.258-0.623h-0.928l0.746,1.695l-1.142,2.475h0.951L22.808,12.395L22.808,12.395z"/></svg>